<svg width="51" height="40" viewBox="0 0 51 40" version="1.1" xmlns="http://www.w3.org/2000/svg" xmlns:xlink="http://www.w3.org/1999/xlink">
<g id="Canvas" fill="none">
<g id="icon-heart">
<g id="icon-heart_2">
<path fill-rule="evenodd" clip-rule="evenodd" d="M 4.49921 19.7028L 4.49923 19.7028L 7.36372 22.3305L 7.36373 22.3305L 25.147 38.643L 42.9305 22.3305L 43.6064 23.0674L 42.9305 22.3304L 45.795 19.703C 50.4603 15.4235 50.4604 8.52373 45.795 4.24399C 41.08 -0.081005 33.4025 -0.0810099 28.6875 4.24399C 28.6875 4.244 28.6875 4.244 28.6874 4.24401L 25.823 6.87168L 25.147 7.49178L 24.471 6.87168L 21.6065 4.24399C 16.8915 -0.0812485 9.21425 -0.0812485 4.49923 4.24399L 4.49921 4.24401C -0.166161 8.52349 -0.166161 15.4233 4.49921 19.7028Z" stroke-width="2" stroke-miterlimit="8" transform="translate(0.000244141 -0.000244141)" stroke="#DE5E38"/>
</g>
</g>
</g>
</svg>

