<svg width="48" height="41" viewBox="0 0 48 41" version="1.1" xmlns="http://www.w3.org/2000/svg" xmlns:xlink="http://www.w3.org/1999/xlink">
<g id="Canvas" fill="none">
<g id="icon-comment">
<g id="icon-comment_2">
<path fill-rule="evenodd" clip-rule="evenodd" d="M 32.4889 34.0688L 32.7779 34.3418L 38.4339 39.6836C 38.8515 40.0779 39.551 40.078 39.9686 39.6836C 39.9687 39.6836 39.9687 39.6836 39.9687 39.6836L 46.0741 33.9173L 46.1079 33.8854L 46.1445 33.8567C 46.193 33.8188 46.2383 33.776 46.2795 33.7291L 46.3103 33.6941L 46.3442 33.6621L 46.5566 33.4617C 46.5567 33.4616 46.5567 33.4615 46.5568 33.4615C 46.8932 33.1436 46.9296 32.6816 46.6976 32.3352L 46.5286 32.0827L 46.5286 31.7788L 46.5286 2C 46.5286 1.44771 46.0809 1 45.5286 1L 2 1C 1.44779 1 1 1.44779 1 2L 1 33.0688C 1 33.6211 1.44779 34.0688 2 34.0688L 32.0913 34.0688L 32.4889 34.0688Z" stroke-width="2" stroke-miterlimit="8" stroke="#DE5E38"/>
</g>
</g>
</g>
</svg>

