<svg width="22" height="19" viewBox="0 0 22 19" version="1.1" xmlns="http://www.w3.org/2000/svg" xmlns:xlink="http://www.w3.org/1999/xlink">
<g id="Canvas" fill="none">
<g id="icon-comment">
<g id="icon-comment_2">
<path fill-rule="evenodd" clip-rule="evenodd" d="M 15.0933 14.8149L 15.3892 15.2688C 15.4286 15.3293 15.4775 15.3887 15.5374 15.4452L 16.9112 16.7427L 16.9113 16.7428C 17.3289 17.1372 18.0283 17.1372 18.4459 16.7428L 18.446 16.7426L 19.8204 15.4449C 19.8204 15.4449 19.8205 15.4448 19.8205 15.4448C 20.0055 15.2699 20.0948 15.0577 20.1077 14.8511L 20.1242 14.5856L 20.2705 14.3634C 20.3739 14.2064 20.4341 14.0192 20.4341 13.8149L 20.4341 2C 20.4341 1.44779 19.9863 1 19.4341 1L 2 1C 1.44779 1 1 1.44779 1 2L 1 13.8149C 1 14.3673 1.44771 14.8149 2 14.8149L 14.5515 14.8149L 15.0933 14.8149Z" stroke-width="2" stroke-miterlimit="8" stroke="#FBF8DB"/>
</g>
</g>
</g>
</svg>

