<svg width="23" height="18" viewBox="0 0 23 18" version="1.1" xmlns="http://www.w3.org/2000/svg" xmlns:xlink="http://www.w3.org/1999/xlink">
<g id="Canvas" fill="none">
<g id="icon-heart">
<g id="icon-heart_2">
<path fill-rule="evenodd" clip-rule="evenodd" d="M 2.39626 2.31511L 2.39625 2.31511C 0.534582 4.02281 0.534582 6.75319 2.39625 8.46089L 2.3963 8.46094L 3.68531 9.64351L 3.68537 9.64356L 11.316 16.6431L 18.9469 9.64326L 18.9469 9.64324L 20.2357 8.46114C 20.2357 8.46113 20.2357 8.46112 20.2357 8.46111C 22.0976 6.75316 22.0976 4.02304 20.2357 2.31511C 18.3244 0.561888 15.1924 0.561874 13.2811 2.31507C 13.281 2.31508 13.281 2.3151 13.281 2.31511L 11.9922 3.49744L 11.3163 4.11757L 10.6403 3.4975L 9.35121 2.31513L 9.35118 2.31511C 7.43963 0.561631 4.30781 0.561631 2.39626 2.31511Z" stroke-width="2" stroke-miterlimit="8" transform="translate(0.000244141 0)" stroke="#FBF8DB"/>
</g>
</g>
</g>
</svg>

