<svg width="51" height="40" viewBox="0 0 51 40" version="1.1" xmlns="http://www.w3.org/2000/svg" xmlns:xlink="http://www.w3.org/1999/xlink">
<g id="Canvas" fill="none">
<g id="icon-heart">
<g id="icon-heart_2">
<path fill-rule="evenodd" clip-rule="evenodd" d="M 4.49903 19.7027L 4.49908 19.7028L 7.36353 22.3306L 7.36358 22.3307L 25.1468 38.643L 42.9303 22.3304L 42.9303 22.3303L 45.7948 19.7032C 45.7948 19.7032 45.7948 19.7032 45.7948 19.7031C 50.4602 15.4237 50.4602 8.52389 45.7948 4.24417C 41.0798 -0.0808271 33.4023 -0.0808271 28.6873 4.24419L 25.823 6.87162L 25.1471 7.49169L 24.4711 6.87164L 21.6063 4.24396L 21.6063 4.24393C 16.8913 -0.0813095 9.21406 -0.0813095 4.49905 4.24393L 4.49903 4.24395C -0.166344 8.52343 -0.166344 15.4232 4.49903 19.7027Z" transform="translate(0.000244141 -0.000244141)" fill="#DE5E38"/>
<path fill-rule="evenodd" clip-rule="evenodd" d="M 4.49903 19.7027L 4.49908 19.7028L 7.36353 22.3306L 7.36358 22.3307L 25.1468 38.643L 42.9303 22.3304L 42.9303 22.3303L 45.7948 19.7032C 45.7948 19.7032 45.7948 19.7032 45.7948 19.7031C 50.4602 15.4237 50.4602 8.52389 45.7948 4.24417C 41.0798 -0.0808271 33.4023 -0.0808271 28.6873 4.24419L 25.823 6.87162L 25.1471 7.49169L 24.4711 6.87164L 21.6063 4.24396L 21.6063 4.24393C 16.8913 -0.0813095 9.21406 -0.0813095 4.49905 4.24393L 4.49903 4.24395C -0.166344 8.52343 -0.166344 15.4232 4.49903 19.7027Z" stroke-width="2" stroke-miterlimit="8" transform="translate(0.000244141 -0.000244141)" stroke="#DE5E38"/>
</g>
</g>
</g>
</svg>

